<svg xmlns="http://www.w3.org/2000/svg" version="1.1" xmlns:xlink="http://www.w3.org/1999/xlink" xmlns:svgjs="http://svgjs.dev/svgjs" width="1440" height="560" preserveAspectRatio="none" viewBox="0 0 1440 560"><g mask="url(&quot;#SvgjsMask1000&quot;)" fill="none"><rect width="1440" height="560" x="0" y="0" fill="#008BFF"></rect><path d="M0,557.49C103.077,559.348,189.516,484.689,270.453,420.833C345.152,361.899,405.68,289.829,447.554,204.391C490.33,117.112,519.382,23.242,512.844,-73.736C505.987,-175.453,481.127,-282.249,409.835,-355.124C339.865,-426.648,233.68,-443.107,135.046,-459.925C45.596,-475.177,-45.261,-476.027,-131.37,-447.407C-215.489,-419.448,-280.014,-358.953,-346.191,-299.976C-421.869,-232.532,-533.915,-179.134,-545.404,-78.417C-556.923,22.566,-451.926,95.134,-401.314,183.274C-356.256,261.741,-330.435,349.485,-264.258,411.194C-189.099,481.278,-102.748,555.638,0,557.49" fill="#006BCF"></path><path d="M1440 1026.722C1527.153 1026.925 1595.001 959.252 1676.144 927.448 1782.157 885.896 1927.146 906.1279999999999 1989.9679999999998 811.162 2051.526 718.107 2012.121 587.005 1969.589 483.85699999999997 1932.0230000000001 392.753 1841.863 341.243 1768.892 275.014 1705.238 217.24200000000002 1644.924 160.841 1569.09 120.36099999999999 1476.519 70.947 1378.695-20.76800000000003 1279.637 13.852999999999952 1179.528 48.84100000000001 1189.074 202.44 1115.559 278.87 1035.546 362.055 869.027 362.326 837.621 473.391 807.161 581.11 905.703 684.842 976.1669999999999 771.825 1035.223 844.725 1122.339 881.1659999999999 1204.561 926.35 1280.874 968.287 1352.923 1026.519 1440 1026.722" fill="#3399FF"></path></g><defs><mask id="SvgjsMask1000"><rect width="1440" height="560" fill="#ffffff"></rect></mask></defs></svg>